<?xml version="1.0" standalone="no"?>
<!DOCTYPE svg PUBLIC "-//W3C//DTD SVG 20010904//EN"
 "http://www.w3.org/TR/2001/REC-SVG-20010904/DTD/svg10.dtd">
<svg version="1.0" xmlns="http://www.w3.org/2000/svg"
 width="35.000000pt" height="25.000000pt" viewBox="0 0 35.000000 25.000000"
 preserveAspectRatio="xMidYMid meet">

<g transform="translate(0.000000,25.000000) scale(0.100000,-0.100000)"
fill="#000000" stroke="none">
<path d="M63 198 c-32 -28 -59 -58 -61 -65 -4 -13 81 -97 122 -120 31 -18 200
-17 215 1 8 9 11 51 9 122 l-3 109 -112 3 -112 3 -58 -53z m134 -20 l23 -21
25 23 c19 18 28 21 37 12 9 -9 6 -18 -12 -37 l-23 -25 23 -25 c18 -19 21 -28
12 -37 -9 -9 -18 -6 -37 12 l-25 23 -25 -23 c-19 -18 -28 -21 -37 -12 -9 9 -6
18 12 37 l23 25 -22 24 c-13 14 -20 29 -16 35 9 16 16 14 42 -11z"/>
</g>
</svg>
