<?xml version="1.0" standalone="no"?>
<!DOCTYPE svg PUBLIC "-//W3C//DTD SVG 20010904//EN"
 "http://www.w3.org/TR/2001/REC-SVG-20010904/DTD/svg10.dtd">
<svg version="1.0" xmlns="http://www.w3.org/2000/svg"
 width="34.000000pt" height="16.000000pt" viewBox="0 0 34.000000 16.000000"
 preserveAspectRatio="xMidYMid meet">

<g transform="translate(0.000000,16.000000) scale(0.100000,-0.100000)"
fill="#000000" stroke="none">
<path d="M95 145 c-55 -15 -95 -52 -95 -91 0 -13 2 -24 5 -24 8 0 57 31 80 51
28 25 136 30 162 8 10 -9 33 -24 51 -33 30 -16 33 -16 39 0 12 33 -19 67 -77
86 -66 20 -99 21 -165 3z"/>
<path d="M48 39 c-32 -16 -51 -39 -33 -39 17 0 75 36 75 47 0 16 3 16 -42 -8z"/>
<path d="M250 51 c0 -12 32 -31 54 -31 22 0 20 16 -1 23 -10 2 -26 8 -35 12
-11 4 -18 3 -18 -4z"/>
</g>
</svg>
