<?xml version="1.0" standalone="no"?>
<!DOCTYPE svg PUBLIC "-//W3C//DTD SVG 20010904//EN"
 "http://www.w3.org/TR/2001/REC-SVG-20010904/DTD/svg10.dtd">
<svg version="1.0" xmlns="http://www.w3.org/2000/svg"
 width="48.000000pt" height="48.000000pt" viewBox="0 0 48.000000 48.000000"
 preserveAspectRatio="xMidYMid meet">

<g transform="translate(0.000000,48.000000) scale(0.100000,-0.100000)"
fill="#000000" stroke="none">
<path d="M259 341 c11 -7 11 -9 0 -14 -10 -4 -9 -6 4 -6 9 -1 17 6 17 14 0 8
-8 15 -17 15 -14 0 -15 -2 -4 -9z"/>
<path d="M300 341 c13 -10 13 -12 0 -22 -13 -9 -13 -10 0 -6 8 2 15 10 15 17
0 7 -7 15 -15 17 -13 4 -13 3 0 -6z"/>
<path d="M330 340 c0 -5 4 -10 9 -10 6 0 13 5 16 10 3 6 -1 10 -9 10 -9 0 -16
-4 -16 -10z"/>
<path d="M380 341 c13 -10 13 -12 0 -22 -13 -9 -13 -10 0 -6 8 2 15 10 15 17
0 7 -7 15 -15 17 -13 4 -13 3 0 -6z"/>
<path d="M340 320 c-13 -8 -12 -10 3 -10 9 0 17 5 17 10 0 12 -1 12 -20 0z"/>
</g>
</svg>
